<svg xmlns="http://www.w3.org/2000/svg" viewBox="0 0 512 512" style="enable-background:new 0 0 512 512" xml:space="preserve"><path style="fill:#88888f" d="M96.319 0v39.896h46.545v192.831h39.896V39.896h146.286v192.831h39.896V39.896h46.546V0zm33.251 445.507h39.896v66.494H129.57z"/><path style="fill:#56545a" d="M342.349 445.507h39.896v66.494h-39.896zM255.903 0v39.896h73.143v192.831h39.896V39.896h46.546V0z"/><path style="fill:#7ab9e8" d="M442.085 458.805H69.722V212.779c0-22.033 17.861-39.896 39.896-39.896h292.571c22.033 0 39.896 17.863 39.896 39.896v246.026z"/><path style="fill:#579adf" d="M402.189 172.883H255.903v285.922h186.182V220.536c2.397-29.636-17.861-47.653-39.896-47.653z"/><path style="fill:#98c8ed" d="M362.293 279.273c0-14.69-11.908-26.597-26.597-26.597H176.111c-14.69 0-26.597 11.908-26.597 26.597v179.532h212.779V279.273z"/><path style="fill:#7ab9e8" d="M335.696 252.675h-79.792v206.13h106.39V279.273c-.001-14.69-11.909-26.598-26.598-26.598z"/><path style="fill:#ff4f19" d="m255.887 413.874-45.706-45.705c-12.708-12.711-12.708-33.39-.003-46.1 12.586-12.581 32.971-12.706 45.709-.388 12.739-12.319 33.126-12.192 45.705.386l.004.003c12.706 12.71 12.706 33.388 0 46.097l-45.709 45.707z"/><path style="fill:#af2e08" d="m301.596 322.069-.004-.003c-12.579-12.578-32.966-12.706-45.705-.386v92.193l45.709-45.708c12.706-12.707 12.706-33.386 0-46.096z"/></svg>